<?xml version="1.0" encoding="UTF-8" standalone="no"?>
<!DOCTYPE svg PUBLIC "-//W3C//DTD SVG 1.1//EN" "http://www.w3.org/Graphics/SVG/1.1/DTD/svg11.dtd">
<svg width="100%" height="100%" viewBox="0 0 512 512" version="1.1" xmlns="http://www.w3.org/2000/svg" xmlns:xlink="http://www.w3.org/1999/xlink" xml:space="preserve" xmlns:serif="http://www.serif.com/" style="fill-rule:evenodd;clip-rule:evenodd;stroke-linecap:round;stroke-linejoin:round;stroke-miterlimit:1.5;">
    <g>
        <path d="M432.777,79.223L79.223,432.777C32.339,385.893 6,322.304 6,256C6,118.021 118.021,6 256,6C322.304,6 385.893,32.339 432.777,79.223Z" style="stroke:rgb(127,127,127);stroke-width:4.17px;"/>
        <path d="M79.223,432.777L432.777,79.223C479.661,126.107 506,189.696 506,256C506,393.979 393.979,506 256,506C189.696,506 126.107,479.661 79.223,432.777Z" style="fill:white;stroke:rgb(129,129,129);stroke-width:4.17px;"/>
    </g>
    <g>
        <path d="M356.16,175.595L356.16,306.75C356.16,366.988 311.28,415.893 256,415.893C200.72,415.893 155.84,366.988 155.84,306.75L155.84,175.595C155.84,115.357 200.72,66.452 256,66.452C311.28,66.452 356.16,115.357 356.16,175.595ZM330.541,175.595C330.541,130.765 297.14,94.368 256,94.368C214.86,94.368 181.459,130.765 181.459,175.595L181.459,306.75C181.459,351.58 214.86,387.977 256,387.977C297.14,387.977 330.541,351.58 330.541,306.75L330.541,175.595Z" style="fill:rgb(129,129,129);stroke:white;stroke-width:2.08px;stroke-linecap:butt;stroke-miterlimit:2;"/>
        <path d="M387.582,241.373L387.582,426.388C387.582,435.813 379.93,443.465 370.505,443.465L141.495,443.465C132.07,443.465 124.418,435.813 124.418,426.388L124.418,241.373C124.418,231.948 132.07,224.296 141.495,224.296L370.505,224.296C379.93,224.296 387.582,231.948 387.582,241.373Z" style="fill:rgb(252,234,43);"/>
        <path d="M376.616,443.465L279.715,443.465L387.236,268.335L387.539,427.662C387.12,436.493 382.386,443.465 376.616,443.465Z" style="fill:rgb(241,179,28);"/>
        <path d="M389.494,241.373L389.494,426.388C389.494,436.963 381.615,445.548 371.91,445.548L140.09,445.548C130.385,445.548 122.506,436.963 122.506,426.388L122.506,241.373C122.506,230.798 130.385,222.213 140.09,222.213L371.91,222.213C381.615,222.213 389.494,230.798 389.494,241.373ZM385.67,241.373C385.67,233.098 379.505,226.38 371.91,226.38L140.09,226.38C132.495,226.38 126.33,233.098 126.33,241.373L126.33,426.388C126.33,434.663 132.495,441.382 140.09,441.382L371.91,441.382C379.505,441.382 385.67,434.663 385.67,426.388L385.67,241.373Z" style="fill:rgb(129,129,129);"/>
    </g>
</svg>
