<?xml version="1.0" encoding="UTF-8" standalone="no"?>
<!DOCTYPE svg PUBLIC "-//W3C//DTD SVG 1.1//EN" "http://www.w3.org/Graphics/SVG/1.1/DTD/svg11.dtd">
<svg width="100%" height="100%" viewBox="0 0 512 512" version="1.1" xmlns="http://www.w3.org/2000/svg" xmlns:xlink="http://www.w3.org/1999/xlink" xml:space="preserve" xmlns:serif="http://www.serif.com/" style="fill-rule:evenodd;clip-rule:evenodd;stroke-linejoin:round;stroke-miterlimit:2;">
    <g>
        <path d="M392.449,149.619L392.449,324.17C392.449,404.339 327.159,469.427 246.739,469.427C166.319,469.427 101.028,404.339 101.028,324.17L101.028,149.619C101.028,69.45 166.319,4.362 246.739,4.362C327.159,4.362 392.449,69.45 392.449,149.619ZM355.18,149.619C355.18,89.956 306.589,41.516 246.739,41.516C186.888,41.516 138.297,89.956 138.297,149.619L138.297,324.17C138.297,383.833 186.888,432.273 246.739,432.273C306.589,432.273 355.18,383.833 355.18,324.17L355.18,149.619Z" style="fill:rgb(129,129,129);stroke:white;stroke-width:4.17px;"/>
        <path d="M438.162,237.162L438.162,483.393C438.162,495.937 427.978,506.121 415.434,506.121L78.043,506.121C65.499,506.121 55.315,495.937 55.315,483.393L55.315,237.162C55.315,224.618 65.499,214.434 78.043,214.434L415.434,214.434C427.978,214.434 438.162,224.618 438.162,237.162Z" style="fill:rgb(252,234,43);"/>
        <path d="M422.21,506.121L281.239,506.121L437.658,273.044L438.099,485.089C437.49,496.842 430.604,506.121 422.21,506.121Z" style="fill:rgb(241,179,28);"/>
        <path d="M440.943,237.162L440.943,483.393C440.943,497.467 429.481,508.894 415.363,508.894L78.114,508.894C63.996,508.894 52.534,497.467 52.534,483.393L52.534,237.162C52.534,223.088 63.996,211.662 78.114,211.662L415.363,211.662C429.481,211.662 440.943,223.088 440.943,237.162ZM435.381,237.162C435.381,226.148 426.411,217.207 415.363,217.207L78.114,217.207C67.066,217.207 58.096,226.148 58.096,237.162L58.096,483.393C58.096,494.407 67.066,503.348 78.114,503.348L415.363,503.348C426.411,503.348 435.381,494.407 435.381,483.393L435.381,237.162Z" style="fill:rgb(129,129,129);"/>
    </g>
    <g>
        <path d="M345.545,261.471L147.932,459.084C121.727,432.879 107.005,397.337 107.005,360.278C107.005,283.156 169.617,220.544 246.739,220.544C283.798,220.544 319.34,235.266 345.545,261.471Z" style="stroke:rgb(127,127,127);stroke-width:4.17px;stroke-linecap:round;stroke-miterlimit:1.5;"/>
        <path d="M147.932,459.084L345.545,261.471C371.75,287.676 386.472,323.218 386.472,360.278C386.472,437.399 323.86,500.011 246.739,500.011C209.679,500.011 174.137,485.289 147.932,459.084Z" style="fill:white;stroke:rgb(129,129,129);stroke-width:4.17px;stroke-linecap:round;stroke-miterlimit:1.5;"/>
    </g>
</svg>
